# xmcd
#
# Track frame offsets:
#	150
#	8313
#	23434
#	39280
#	53656
#	71668
#	88991
#	97494
#	113110
#	130844
#
# Disc length: 1967 seconds
#
# Revision: 1
# Processed by: cddbd v1.5.2PL0 Copyright (c) Steve Scherf et al.
# Submitted via: audiograbber 1.83.01
#
DISCID=7707ad0a
DTITLE=Charlie Daniels Band - Snapshot
DYEAR=2013
DGENRE=Country
TTITLE0=Star Spangled Banner
TTITLE1=In  America
TTITLE2=This Ain't No Rag It's A Flag
TTITLE3=The Intimidator
TTITLE4=God Bless The Mother
TTITLE5=My Beautiful America
TTITLE6=How Great Thou Art
TTITLE7=Little Folks
TTITLE8=The South's Gonna Do It Again
TTITLE9=The Devil Went Down To Georgia
EXTD=
EXTT0=
EXTT1=
EXTT2=
EXTT3=
EXTT4=
EXTT5=
EXTT6=
EXTT7=
EXTT8=
EXTT9=
PLAYORDER=
